<?xml version="1.0" standalone="no"?><!DOCTYPE svg PUBLIC "-//W3C//DTD SVG 1.1//EN" "http://www.w3.org/Graphics/SVG/1.1/DTD/svg11.dtd"><svg width="100%" height="100%" viewBox="0 0 264 264" version="1.1" xmlns="http://www.w3.org/2000/svg" xmlns:xlink="http://www.w3.org/1999/xlink" xml:space="preserve" style="fill-rule:evenodd;clip-rule:evenodd;stroke-linejoin:round;stroke-miterlimit:1.41421;"><g id="Warstwa 1"><clipPath id="_clip1"><path d="M135.93,51.677c0,0 -28.136,-3.689 -56.165,7.157c-22.793,8.815 -48.841,49.559 -47.571,53.834l30.377,-15.016c0,0 -25.725,42.233 -18.76,61.767c1.028,2.88 47.483,32.159 47.483,32.159c-6.455,-10.93 -7.034,-41.51 -7.034,-41.51c0,0 36.312,31.651 28.093,65.135c0,0 17.065,-9 18.818,-25.232c3.776,4.131 6.772,8.033 8.419,11.365c7.444,15.072 -4.052,34.813 -5.743,37.572c4.574,-0.154 9.072,-1.135 13.309,-2.761c4.309,-1.633 8.359,-3.909 12.008,-6.683c7.291,-5.531 13.058,-13.122 15.823,-21.685c1.403,-4.271 2.04,-8.732 1.817,-13.209c-0.203,-4.427 -1.21,-8.838 -2.913,-12.935c-3.418,-8.233 -9.5,-15.234 -16.677,-20.569c-1.801,-1.332 -3.68,-2.558 -5.613,-3.675l-0.364,-0.207l-0.182,-0.104l-0.312,-0.193l-0.746,-0.476l-1.509,-0.989c-0.998,-0.666 -1.99,-1.347 -2.969,-2.051c-3.922,-2.807 -7.712,-5.932 -11.067,-9.631c-3.333,-3.697 -6.194,-8.045 -7.947,-12.921c-0.864,-2.434 -1.48,-4.967 -1.779,-7.53c-0.145,-1.281 -0.223,-2.566 -0.237,-3.848l0.002,-0.983l0.022,-0.877c0.021,-0.626 0.048,-1.274 0.089,-1.884c0.371,-4.944 1.356,-9.855 3.108,-14.519c1.789,-4.636 4.275,-9.081 7.693,-12.764c3.366,-3.711 7.662,-6.618 12.365,-8.178c4.709,-1.552 9.708,-1.752 14.358,-0.837l-0.058,0.651c-4.653,0.075 -9.21,0.964 -13.181,2.954c-3.991,1.934 -7.345,4.887 -9.957,8.359c-1.886,2.555 -3.427,5.364 -4.604,8.329c0.786,4.144 2.804,11.648 7.862,19.719c-5.215,1.492 -9.32,3.071 -10.679,3.612l0.038,0.226c1.702,0.106 7.525,0.53 14.593,1.715c0.951,1.19 1.966,2.374 3.068,3.552c-5.769,1.199 -11.102,2.931 -14.477,4.138c0.315,0.601 0.649,1.194 1,1.779c6.612,0.644 18.968,2.29 28.986,6.163c2.523,1.424 5.227,2.768 8.178,3.997c1.018,0.556 1.928,1.022 2.727,1.407c-4.112,-0.02 -21.124,0.004 -27.76,1.807c0.377,0.307 0.744,0.622 1.127,0.924c0.893,0.699 1.802,1.38 2.724,2.048l1.387,0.991l0.714,0.498l0.089,0.062c0.089,0.057 -0.002,0 -0.054,-0.032l0.021,0.013l0.194,0.121l0.39,0.243c2.064,1.307 4.053,2.726 5.953,4.253c3.923,3.136 7.518,6.753 10.56,10.787c3.081,-0.873 6.345,-1.478 9.572,-1.62c3.919,-0.183 7.832,0.292 11.469,1.347c3.649,1.041 7.002,2.624 10.143,4.377c1.154,0.633 2.274,1.296 3.39,1.959c3.254,1.132 5.453,2.308 5.922,3.243c-0.252,-0.834 0.525,-8.085 3.36,-15.751l2.293,-4.395c-0.959,0.637 -1.917,1.165 -2.835,1.605c-7.075,-4.404 -32.595,-11.046 -32.595,-11.046l34.728,-4.109c3.163,2.961 2.559,7.542 2.559,7.542l3.767,-9.115c1.597,-3.713 3.167,-7.326 4.55,-10.495l-10.554,-6.432l13.779,-0.895c1.058,-2.402 1.704,-3.841 1.704,-3.841l-41.34,-18.075l-17.231,-24.24c0,0 -2.073,-23.332 -12.895,-30.814c-11.197,-7.749 -32.956,-11.877 -32.956,-11.877l8.133,16.594ZM96.368,102.845c1.66,-10.896 10.412,-29.599 18.868,-34.716c0,0 11.788,4.107 19.376,5.831c0,0 -24.965,12.071 -24.985,40.554c-0.02,30.185 24.957,53.047 24.957,53.047c0,0 -43.893,-27.466 -38.216,-64.716ZM171.444,111.896l-2.12,-10.343c0,0 11.539,5.047 13.99,8.047l0.023,0l2.945,7.532l-13.322,-5.226l0,0.247l-1.516,-0.257ZM57.328,150.664c-2.932,-7.799 15.903,-36.748 15.903,-36.748l3.626,8.952c-12.518,17.806 -5.165,40.429 -5.165,40.429l-14.364,-12.633Z"/></clipPath><g clip-path="url(#_clip1)"><path d="M30.924,238.908l0,-203.825l201.295,0l0,203.825l-201.295,0Z" style="fill:url(#_Linear2);fill-rule:nonzero;"/></g></g><defs><linearGradient id="_Linear2" x1="0" y1="0" x2="1" y2="0" gradientUnits="userSpaceOnUse" gradientTransform="matrix(-1.53e-05,-203.825,203.825,-1.53e-05,132.184,238.908)"><stop offset="0%" style="stop-color:#ac9156;stop-opacity:1"/><stop offset="100%" style="stop-color:#fff;stop-opacity:1"/></linearGradient></defs></svg>